{"title":"Holes 2003 Web-DL 1080P x264 MP4 - Ofek","uid":10104242,"size":5113054371,"categoryP":"video","categoryS":"hd___movies","magnet":"?xt=urn:btih:de65087163a372fb285faecddf9a7955ff792233&amp;dn=Holes+2003+Web-DL+1080P+x264+MP4+-+Ofek&amp;tr=udp%3A%2F%2Ftracker.openbittorrent.com%3A80&amp;tr=udp%3A%2F%2Fopen.demonii.com%3A1337&amp;tr=udp%3A%2F%2Ftracker.coppersurfer.tk%3A6969&amp;tr=udp%3A%2F%2Fexodus.desync.com%3A6969","seeders":23,"leechers":4,"uploader":"realOfek","files":2,"time":1399436560,"description":"Please leave feedback!\n\nSource: Web DL\n\nSubtitles were found elsewhere and synced by me.  This will be the first HD streaming quality copy on KAT &amp; TPB :)  (HDTV rips are sub-par and this hasn't been released on bluray)\n\nGeneral\nFormat                                   : MPEG-4\nFormat profile                           : Base Media\nCodec ID                                 : isom\nFile size                                : 4.76 GiB\nDuration                                 : 1h 57mn\nOverall bit rate mode                    : Variable\nOverall bit rate                         : 5 806 Kbps\nEncoded date                             : UTC 2014-05-04 20:47:30\nTagged date                              : UTC 2014-05-04 20:47:30\n\nVideo\nID                                       : 1\nFormat                                   : AVC\nFormat/Info                              : Advanced Video Codec\nFormat profile                           : &lt;a class=&quot;__cf_email__&quot; href=&quot;/cdn-cgi/l/email-protection&quot; data-cfemail=&quot;7a32131d123a364e544a&quot;&gt;[email&amp;#160;protected]&lt;/a&gt;&lt;script cf-hash='f9e31' type=&quot;text/javascript&quot;&gt;\n/* &lt;![CDATA[ */!function(){try{var t=&quot;currentScript&quot;in document?document.currentScript:function(){for(var t=document.getElementsByTagName(&quot;script&quot;),e=t.length;e--;)if(t[e].getAttribute(&quot;cf-hash&quot;))return t[e]}();if(t&amp;&amp;t.previousSibling){var e,r,n,i,c=t.previousSibling,a=c.getAttribute(&quot;data-cfemail&quot;);if(a){for(e=&quot;&quot;,r=parseInt(a.substr(0,2),16),n=2;a.length-n;n+=2)i=parseInt(a.substr(n,2),16)^r,e+=String.fromCharCode(i);e=document.createTextNode(e),c.parentNode.replaceChild(e,c)}}}catch(u){}}();/* ]]&gt; */&lt;/script&gt;\nFormat settings, CABAC                   : Yes\nFormat settings, ReFrames                : 4 frames\nCodec ID                                 : avc1\nCodec ID/Info                            : Advanced Video Coding\nDuration                                 : 1h 57mn\nBit rate                                 : 5 297 Kbps\nMaximum bit rate                         : 12.9 Mbps\nWidth                                    : 1 920 pixels\nHeight                                   : 1 036 pixels\nDisplay aspect ratio                     : 1.85:1\nFrame rate mode                          : Constant\nFrame rate                               : 23.976 fps\nColor space                              : YUV\nChroma subsampling                       : 4:2:0\nBit depth                                : 8 bits\nScan type                                : Progressive\nBits/(Pixel*Frame)                       : 0.111\nStream size                              : 4.34 GiB (91%)\nTitle                                    : 1.h264 - Imported with GPAC 0.5.0-rev4065\nLanguage                                 : English\nEncoded date                             : UTC 2014-05-04 20:47:30\nTagged date                              : UTC 2014-05-04 20:52:59\nColor primaries                          : BT.709\nTransfer characteristics                 : BT.709\nMatrix coefficients                      : BT.709\n\nAudio #1\nID                                       : 2\nFormat                                   : AAC\nFormat/Info                              : Advanced Audio Codec\nFormat profile                           : LC\nCodec ID                                 : 40\nDuration                                 : 1h 57mn\nBit rate mode                            : Variable\nBit rate                                 : 120 Kbps\nMaximum bit rate                         : 177 Kbps\nChannel(s)                               : 2 channels\nChannel positions                        : Front: L R\nSampling rate                            : 48.0 KHz\nCompression mode                         : Lossy\nStream size                              : 101 MiB (2%)\nLanguage                                 : English\nEncoded date                             : UTC 2014-05-04 20:52:29\nTagged date                              : UTC 2014-05-04 20:52:59\n\nAudio #2\nID                                       : 3\nFormat                                   : AC-3\nFormat/Info                              : Audio Coding 3\nMode extension                           : CM (complete main)\nFormat settings, Endianness              : Big\nCodec ID                                 : ac-3\nDuration                                 : 1h 57mn\nBit rate mode                            : Constant\nBit rate                                 : 384 Kbps\nChannel(s)                               : 6 channels\nChannel positions                        : Front: L C R, Side: L R, LFE\nSampling rate                            : 48.0 KHz\nBit depth                                : 16 bits\nCompression mode                         : Lossy\nStream size                              : 322 MiB (7%)\nTitle                                    : 6.ac3 - Imported with GPAC 0.5.0-rev4065\nLanguage                                 : English\nEncoded date                             : UTC 2014-05-04 20:52:37\nTagged date                              : UTC 2014-05-04 20:52:59\n\n\n\n\n\n\nEnjoy!","torrent":{"xt":"urn:btih:de65087163a372fb285faecddf9a7955ff792233","amp;dn":"Holes+2003+Web-DL+1080P+x264+MP4+-+Ofek","amp;tr":["udp%3A%2F%2Ftracker.openbittorrent.com%3A80","udp%3A%2F%2Fopen.demonii.com%3A1337","udp%3A%2F%2Ftracker.coppersurfer.tk%3A6969","udp%3A%2F%2Fexodus.desync.com%3A6969"],"infoHash":"de65087163a372fb285faecddf9a7955ff792233","infoHashBuffer":{"type":"Buffer","data":[222,101,8,113,99,163,114,251,40,95,174,205,223,154,121,85,255,121,34,51]},"announce":[],"urlList":[]}}